<svg width="164" height="42" viewBox="0 0 164 42" fill="none" xmlns="http://www.w3.org/2000/svg">
<path d="M18.4479 28.3153H11.3207L10.9911 28.7773L8.76641 31.8853L8.56042 32.1793V34.1953H33.0731V28.3153H18.4479ZM14.2457 24.1993H21.4141L30.2305 11.8933L32.8671 8.2393L34.1031 6.4753H8.56042V12.3553H22.7325L14.2457 24.1993Z" fill="url(#paint0_linear_1989_838)"/>
<path d="M56.5436 6.5173V16.5133H44.0195V6.5173H38.2518V34.1953H44.0195V22.4353H56.5436V34.1953H62.3113V6.5173H56.5436Z" fill="url(#paint1_linear_1989_838)"/>
<path d="M67.36 32.5573L66.4948 34.1953H73.7457L74.034 33.6493L79.9253 22.7713L76.2999 16.1353L67.36 32.5573ZM97.1048 32.5573L85.5694 11.3473L83.1799 6.9793L82.9328 6.3913H81.532L81.2436 6.9793L78.8954 11.3473L78.607 11.8933L82.2324 18.5713L82.3148 18.7393L84.9927 23.6533L90.4308 33.6493L90.7191 34.1953H97.97L97.1048 32.5573Z" fill="url(#paint2_linear_1989_838)"/>
<path d="M115.11 17.3953H107.282C105.923 17.3953 104.81 16.2613 104.81 14.8753C104.81 13.4893 105.923 12.3553 107.282 12.3553H116.305C117.211 12.6493 117.829 13.4893 117.829 14.4973H123.473C123.473 13.7413 123.391 13.0273 123.185 12.3553C122.278 8.9533 119.23 6.4753 115.604 6.4753H107.282C104.316 6.4753 101.556 8.0713 100.114 10.7173C99.4135 11.9773 99.0427 13.4053 99.0427 14.8753C99.0427 16.3453 99.4135 17.7733 100.114 19.0333C100.443 19.6213 100.814 20.1253 101.226 20.5873C102.792 22.2673 104.975 23.2753 107.282 23.2753H115.11C116.469 23.2753 117.541 24.4093 117.541 25.7953C117.541 27.1813 116.469 28.3153 115.11 28.3153H106.17C105.305 28.0213 104.687 27.1813 104.687 26.1733H99.0427C99.0427 26.9293 99.1251 27.6433 99.2899 28.3153C100.237 31.7173 103.286 34.1953 106.911 34.1953H115.11C118.035 34.1953 120.795 32.5993 122.237 29.9953C122.979 28.6933 123.349 27.2653 123.349 25.7953C123.349 24.3253 122.979 22.8973 122.237 21.6373C120.795 19.0333 118.035 17.3953 115.11 17.3953Z" fill="url(#paint3_linear_1989_838)"/>
<path d="M124.45 32.5573L123.584 34.1953H130.835L131.124 33.6493L137.015 22.7713L133.389 16.1353L124.45 32.5573ZM154.194 32.5573L142.659 11.3473L140.269 6.9793L140.022 6.3913H138.622L138.333 6.9793L135.985 11.3473L135.697 11.8933L139.322 18.5713L139.404 18.7393L142.082 23.6533L147.52 33.6493L147.809 34.1953H155.059L154.194 32.5573Z" fill="url(#paint4_linear_1989_838)"/>
<defs>
<linearGradient id="paint0_linear_1989_838" x1="8.56042" y1="6.3913" x2="97.9967" y2="92.9886" gradientUnits="userSpaceOnUse">
<stop stop-color="#1DD6B4"/>
<stop offset="1" stop-color="#188ED0"/>
</linearGradient>
<linearGradient id="paint1_linear_1989_838" x1="8.56042" y1="6.3913" x2="97.9967" y2="92.9886" gradientUnits="userSpaceOnUse">
<stop stop-color="#1DD6B4"/>
<stop offset="1" stop-color="#188ED0"/>
</linearGradient>
<linearGradient id="paint2_linear_1989_838" x1="8.56042" y1="6.3913" x2="97.9967" y2="92.9886" gradientUnits="userSpaceOnUse">
<stop stop-color="#1DD6B4"/>
<stop offset="1" stop-color="#188ED0"/>
</linearGradient>
<linearGradient id="paint3_linear_1989_838" x1="8.56042" y1="6.3913" x2="97.9967" y2="92.9886" gradientUnits="userSpaceOnUse">
<stop stop-color="#1DD6B4"/>
<stop offset="1" stop-color="#188ED0"/>
</linearGradient>
<linearGradient id="paint4_linear_1989_838" x1="8.56042" y1="6.3913" x2="97.9967" y2="92.9886" gradientUnits="userSpaceOnUse">
<stop stop-color="#1DD6B4"/>
<stop offset="1" stop-color="#188ED0"/>
</linearGradient>
</defs>
</svg>
