<svg width="26" height="19" viewBox="0 0 26 19" fill="none" xmlns="http://www.w3.org/2000/svg">
<path d="M7.5 10.6885C11.4973 10.6885 15 12.2309 15 15.617C15 17.392 14.3109 18.1885 12.8529 18.1885H2.14706C0.689073 18.1885 0 17.392 0 15.617C0 12.2309 3.50271 10.6885 7.5 10.6885ZM18 10.6885C21.9973 10.6885 25.5 12.2309 25.5 15.617C25.5 17.392 24.8109 18.1885 23.3529 18.1885H17.5C16.9477 18.1885 16.5 17.7408 16.5 17.1885C16.5 16.6362 16.9477 16.1885 17.5 16.1885L23.4128 16.1887C23.4298 16.189 23.4439 16.1894 23.4554 16.1901L23.468 16.1915L23.4704 16.1767C23.4809 16.0955 23.4945 15.9557 23.4987 15.7491L23.5 15.617C23.5 13.7838 21.0125 12.6885 18 12.6885C17.5723 12.6885 17.1018 12.7185 16.6302 12.7793C16.0825 12.85 15.5812 12.4632 15.5105 11.9155C15.4398 11.3677 15.8266 10.8664 16.3743 10.7958C16.931 10.7239 17.487 10.6885 18 10.6885ZM7.5 12.6885C4.48749 12.6885 2 13.7838 2 15.617C2 15.8974 2.01695 16.0792 2.02958 16.1767L2.031 16.1915L2.04456 16.1901L2.06385 16.1892L12.9288 16.189C12.9389 16.1893 12.9477 16.1896 12.9554 16.1901L12.968 16.1915L12.9704 16.1767C12.983 16.0792 13 15.8974 13 15.617C13 13.7838 10.5125 12.6885 7.5 12.6885ZM18 0.688477C20.3479 0.688477 22.25 2.59057 22.25 4.93848C22.25 7.28639 20.3479 9.18848 18 9.18848C15.6521 9.18848 13.75 7.28639 13.75 4.93848C13.75 2.59057 15.6521 0.688477 18 0.688477ZM7.5 0.688477C9.84791 0.688477 11.75 2.59057 11.75 4.93848C11.75 7.28639 9.84791 9.18848 7.5 9.18848C5.15209 9.18848 3.25 7.28639 3.25 4.93848C3.25 2.59057 5.15209 0.688477 7.5 0.688477ZM18 2.68848C16.7567 2.68848 15.75 3.69514 15.75 4.93848C15.75 6.18182 16.7567 7.18848 18 7.18848C19.2433 7.18848 20.25 6.18182 20.25 4.93848C20.25 3.69514 19.2433 2.68848 18 2.68848ZM7.5 2.68848C6.25666 2.68848 5.25 3.69514 5.25 4.93848C5.25 6.18182 6.25666 7.18848 7.5 7.18848C8.74334 7.18848 9.75 6.18182 9.75 4.93848C9.75 3.69514 8.74334 2.68848 7.5 2.68848Z" fill="#868686"/>
<path d="M7.5 10.6885C11.4973 10.6885 15 12.2309 15 15.617C15 17.392 14.3109 18.1885 12.8529 18.1885H2.14706C0.689073 18.1885 0 17.392 0 15.617C0 12.2309 3.50271 10.6885 7.5 10.6885ZM18 10.6885C21.9973 10.6885 25.5 12.2309 25.5 15.617C25.5 17.392 24.8109 18.1885 23.3529 18.1885H17.5C16.9477 18.1885 16.5 17.7408 16.5 17.1885C16.5 16.6362 16.9477 16.1885 17.5 16.1885L23.4128 16.1887C23.4298 16.189 23.4439 16.1894 23.4554 16.1901L23.468 16.1915L23.4704 16.1767C23.4809 16.0955 23.4945 15.9557 23.4987 15.7491L23.5 15.617C23.5 13.7838 21.0125 12.6885 18 12.6885C17.5723 12.6885 17.1018 12.7185 16.6302 12.7793C16.0825 12.85 15.5812 12.4632 15.5105 11.9155C15.4398 11.3677 15.8266 10.8664 16.3743 10.7958C16.931 10.7239 17.487 10.6885 18 10.6885ZM7.5 12.6885C4.48749 12.6885 2 13.7838 2 15.617C2 15.8974 2.01695 16.0792 2.02958 16.1767L2.031 16.1915L2.04456 16.1901L2.06385 16.1892L12.9288 16.189C12.9389 16.1893 12.9477 16.1896 12.9554 16.1901L12.968 16.1915L12.9704 16.1767C12.983 16.0792 13 15.8974 13 15.617C13 13.7838 10.5125 12.6885 7.5 12.6885ZM18 0.688477C20.3479 0.688477 22.25 2.59057 22.25 4.93848C22.25 7.28639 20.3479 9.18848 18 9.18848C15.6521 9.18848 13.75 7.28639 13.75 4.93848C13.75 2.59057 15.6521 0.688477 18 0.688477ZM7.5 0.688477C9.84791 0.688477 11.75 2.59057 11.75 4.93848C11.75 7.28639 9.84791 9.18848 7.5 9.18848C5.15209 9.18848 3.25 7.28639 3.25 4.93848C3.25 2.59057 5.15209 0.688477 7.5 0.688477ZM18 2.68848C16.7567 2.68848 15.75 3.69514 15.75 4.93848C15.75 6.18182 16.7567 7.18848 18 7.18848C19.2433 7.18848 20.25 6.18182 20.25 4.93848C20.25 3.69514 19.2433 2.68848 18 2.68848ZM7.5 2.68848C6.25666 2.68848 5.25 3.69514 5.25 4.93848C5.25 6.18182 6.25666 7.18848 7.5 7.18848C8.74334 7.18848 9.75 6.18182 9.75 4.93848C9.75 3.69514 8.74334 2.68848 7.5 2.68848Z" fill="#868686"/>
</svg>
