<svg width="20" height="25" viewBox="0 0 20 25" fill="none" xmlns="http://www.w3.org/2000/svg">
<path fill-rule="evenodd" clip-rule="evenodd" d="M10.1616 0.688477C9.63446 0.688461 9.17964 0.688447 8.80509 0.719049C8.40974 0.75135 8.01653 0.822666 7.63815 1.01546C7.07366 1.30308 6.61472 1.76202 6.3271 2.32651C6.1343 2.70489 6.06299 3.09811 6.03069 3.49345C6.00008 3.86802 6.0001 4.32279 6.00012 4.84994L6.00012 10.3792C5.70802 10.3792 5.41593 10.4219 5.13328 10.5072C4.75706 10.6207 4.44548 10.8167 4.15495 11.0398C3.81883 11.298 3.50531 11.5884 3.19046 11.8718L1.32384 13.5517C0.999379 13.8431 0.713393 14.1 0.501612 14.4186C0.315641 14.6985 0.177994 15.0075 0.0944173 15.3329C-0.000757806 15.7035 -0.000375739 16.0879 5.77065e-05 16.5241L0.000115881 20.527C9.79992e-05 21.0542 8.25021e-05 21.5089 0.0306863 21.8835C0.0629873 22.2789 0.134303 22.6721 0.327097 23.0504C0.614717 23.6149 1.07366 24.0739 1.63815 24.3615C2.01652 24.5543 2.40974 24.6256 2.80509 24.6579C3.17966 24.6885 3.63441 24.6885 4.16155 24.6885H15.8387C16.3658 24.6885 16.8206 24.6885 17.1951 24.6579C17.5905 24.6256 17.9837 24.5543 18.3621 24.3615C18.9266 24.0739 19.3855 23.6149 19.6731 23.0504C19.8659 22.6721 19.9372 22.2789 19.9695 21.8835C20.0002 21.5089 20.0001 21.0542 20.0001 20.527V4.84991C20.0001 4.32277 20.0002 3.86802 19.9695 3.49345C19.9372 3.09811 19.8659 2.70489 19.6731 2.32651C19.3855 1.76202 18.9266 1.30308 18.3621 1.01546C17.9837 0.822666 17.5905 0.75135 17.1951 0.719049C16.8206 0.688447 16.3659 0.688461 15.8387 0.688477H10.1616ZM8.78294 11.8477C8.49297 11.5867 8.23427 11.3538 8.00012 11.1627V4.88848C8.00012 4.31193 8.00089 3.93965 8.02404 3.65632C8.04624 3.38465 8.08392 3.28393 8.10911 3.23449C8.20498 3.04633 8.35796 2.89335 8.54613 2.79747C8.59557 2.77228 8.69629 2.7346 8.96795 2.71241C9.25129 2.68926 9.62356 2.68848 10.2001 2.68848H15.8001C16.3767 2.68848 16.7489 2.68926 17.0323 2.71241C17.3039 2.7346 17.4047 2.77228 17.4541 2.79747C17.6423 2.89335 17.7952 3.04633 17.8911 3.23449C17.9163 3.28393 17.954 3.38465 17.9762 3.65632C17.9993 3.93965 18.0001 4.31193 18.0001 4.88848V20.4885C18.0001 21.065 17.9993 21.4373 17.9762 21.7206C17.954 21.9923 17.9163 22.093 17.8911 22.1425C17.7952 22.3306 17.6423 22.4836 17.4541 22.5795C17.4047 22.6047 17.3039 22.6424 17.0323 22.6646C16.7831 22.6849 16.4652 22.688 16.0001 22.6884V21.6885C16.0001 21.3621 16.0001 21.1989 15.9429 21.0717C15.8777 20.9269 15.7617 20.8109 15.6169 20.7457C15.4896 20.6885 15.3265 20.6885 15.0001 20.6885C14.6738 20.6885 14.5106 20.6885 14.3833 20.7457C14.2385 20.8109 14.1226 20.9269 14.0574 21.0717C14.0001 21.1989 14.0001 21.3621 14.0001 21.6885V22.6885H12.0001L12.0002 16.5241C12.0006 16.0879 12.001 15.7035 11.9058 15.3329C11.8222 15.0075 11.6846 14.6985 11.4986 14.4186C11.2868 14.1 11.0009 13.8431 10.6764 13.5517L8.78294 11.8477ZM10.0001 16.6136V22.6885L7 22.6885V20.6885C7 20.3621 7 20.1989 6.94273 20.0717C6.87755 19.9269 6.7616 19.8109 6.61677 19.7457C6.48953 19.6885 6.32635 19.6885 6 19.6885C5.67365 19.6885 5.51047 19.6885 5.38323 19.7457C5.2384 19.8109 5.12245 19.9269 5.05727 20.0717C5 20.1989 5 20.3621 5 20.6885V22.6885L4.20012 22.6885C3.62356 22.6885 3.25129 22.6877 2.96795 22.6646C2.69629 22.6424 2.59557 22.6047 2.54613 22.5795C2.35796 22.4836 2.20498 22.3306 2.10911 22.1425C2.08392 22.093 2.04624 21.9923 2.02404 21.7206C2.00089 21.4373 2.00012 21.065 2.00012 20.4885V16.6136C2.00012 16.0375 2.00745 15.9243 2.03155 15.8305C2.05941 15.722 2.10529 15.619 2.16728 15.5257C2.2209 15.445 2.30017 15.3638 2.72839 14.9784L4.52839 13.3584C4.91829 13.0075 5.16871 12.7831 5.37329 12.6259C5.56804 12.4763 5.65954 12.4374 5.71117 12.4219C5.8996 12.365 6.10063 12.365 6.28906 12.4219C6.3407 12.4374 6.43219 12.4763 6.62694 12.6259C6.83152 12.7831 7.08194 13.0075 7.47184 13.3584L9.27184 14.9784C9.70006 15.3638 9.77934 15.445 9.83295 15.5257C9.89494 15.619 9.94082 15.722 9.96868 15.8305C9.99278 15.9243 10.0001 16.0375 10.0001 16.6136ZM10.0574 5.07171C10.0001 5.19895 10.0001 5.36213 10.0001 5.68848C10.0001 6.01483 10.0001 6.17801 10.0574 6.30525C10.1226 6.45008 10.2385 6.56603 10.3833 6.63122C10.5106 6.68848 10.6738 6.68848 11.0001 6.68848C11.3265 6.68848 11.4896 6.68848 11.6169 6.63122C11.7617 6.56603 11.8777 6.45008 11.9429 6.30525C12.0001 6.17801 12.0001 6.01483 12.0001 5.68848C12.0001 5.36213 12.0001 5.19895 11.9429 5.07171C11.8777 4.92688 11.7617 4.81093 11.6169 4.74575C11.4896 4.68848 11.3265 4.68848 11.0001 4.68848C10.6738 4.68848 10.5106 4.68848 10.3833 4.74575C10.2385 4.81093 10.1226 4.92688 10.0574 5.07171ZM14.0001 5.68848C14.0001 5.36213 14.0001 5.19895 14.0574 5.07171C14.1226 4.92688 14.2385 4.81093 14.3833 4.74575C14.5106 4.68848 14.6738 4.68848 15.0001 4.68848C15.3265 4.68848 15.4896 4.68848 15.6169 4.74575C15.7617 4.81093 15.8777 4.92688 15.9429 5.07171C16.0001 5.19895 16.0001 5.36213 16.0001 5.68848C16.0001 6.01483 16.0001 6.17801 15.9429 6.30525C15.8777 6.45008 15.7617 6.56603 15.6169 6.63122C15.4896 6.68848 15.3265 6.68848 15.0001 6.68848C14.6738 6.68848 14.5106 6.68848 14.3833 6.63122C14.2385 6.56603 14.1226 6.45008 14.0574 6.30525C14.0001 6.17801 14.0001 6.01483 14.0001 5.68848ZM14.0574 9.07171C14.0001 9.19895 14.0001 9.36213 14.0001 9.68848C14.0001 10.0148 14.0001 10.178 14.0574 10.3052C14.1226 10.4501 14.2385 10.566 14.3833 10.6312C14.5106 10.6885 14.6738 10.6885 15.0001 10.6885C15.3265 10.6885 15.4896 10.6885 15.6169 10.6312C15.7617 10.566 15.8777 10.4501 15.9429 10.3052C16.0001 10.178 16.0001 10.0148 16.0001 9.68848C16.0001 9.36213 16.0001 9.19895 15.9429 9.07171C15.8777 8.92688 15.7617 8.81093 15.6169 8.74575C15.4896 8.68848 15.3265 8.68848 15.0001 8.68848C14.6738 8.68848 14.5106 8.68848 14.3833 8.74575C14.2385 8.81093 14.1226 8.92688 14.0574 9.07171ZM10.0001 9.68848C10.0001 9.36213 10.0001 9.19895 10.0574 9.07171C10.1226 8.92688 10.2385 8.81093 10.3833 8.74575C10.5106 8.68848 10.6738 8.68848 11.0001 8.68848C11.3265 8.68848 11.4896 8.68848 11.6169 8.74575C11.7617 8.81093 11.8777 8.92688 11.9429 9.07171C12.0001 9.19895 12.0001 9.36213 12.0001 9.68848C12.0001 10.0148 12.0001 10.178 11.9429 10.3052C11.8777 10.4501 11.7617 10.566 11.6169 10.6312C11.4896 10.6885 11.3265 10.6885 11.0001 10.6885C10.6738 10.6885 10.5106 10.6885 10.3833 10.6312C10.2385 10.566 10.1226 10.4501 10.0574 10.3052C10.0001 10.178 10.0001 10.0148 10.0001 9.68848ZM14.0574 13.0717C14.0001 13.1989 14.0001 13.3621 14.0001 13.6885C14.0001 14.0148 14.0001 14.178 14.0574 14.3052C14.1226 14.4501 14.2385 14.566 14.3833 14.6312C14.5106 14.6885 14.6738 14.6885 15.0001 14.6885C15.3265 14.6885 15.4896 14.6885 15.6169 14.6312C15.7617 14.566 15.8777 14.4501 15.9429 14.3052C16.0001 14.178 16.0001 14.0148 16.0001 13.6885C16.0001 13.3621 16.0001 13.1989 15.9429 13.0717C15.8777 12.9269 15.7617 12.8109 15.6169 12.7457C15.4896 12.6885 15.3265 12.6885 15.0001 12.6885C14.6738 12.6885 14.5106 12.6885 14.3833 12.7457C14.2385 12.8109 14.1226 12.9269 14.0574 13.0717ZM14.0001 17.6885C14.0001 17.3621 14.0001 17.1989 14.0574 17.0717C14.1226 16.9269 14.2385 16.8109 14.3833 16.7457C14.5106 16.6885 14.6738 16.6885 15.0001 16.6885C15.3265 16.6885 15.4896 16.6885 15.6169 16.7457C15.7617 16.8109 15.8777 16.9269 15.9429 17.0717C16.0001 17.1989 16.0001 17.3621 16.0001 17.6885C16.0001 18.0148 16.0001 18.178 15.9429 18.3052C15.8777 18.4501 15.7617 18.566 15.6169 18.6312C15.4896 18.6885 15.3265 18.6885 15.0001 18.6885C14.6738 18.6885 14.5106 18.6885 14.3833 18.6312C14.2385 18.566 14.1226 18.4501 14.0574 18.3052C14.0001 18.178 14.0001 18.0148 14.0001 17.6885ZM5 16.6885C5 16.3621 5 16.1989 5.05727 16.0717C5.12245 15.9269 5.2384 15.8109 5.38323 15.7457C5.51047 15.6885 5.67365 15.6885 6 15.6885C6.32635 15.6885 6.48953 15.6885 6.61677 15.7457C6.7616 15.8109 6.87755 15.9269 6.94273 16.0717C7 16.1989 7 16.3621 7 16.6885C7 17.0148 7 17.178 6.94273 17.3052C6.87755 17.4501 6.7616 17.566 6.61677 17.6312C6.48953 17.6885 6.32635 17.6885 6 17.6885C5.67365 17.6885 5.51047 17.6885 5.38323 17.6312C5.2384 17.566 5.12245 17.4501 5.05727 17.3052C5 17.178 5 17.0148 5 16.6885Z" fill="#868686"/>
</svg>
