<svg width="28" height="29" viewBox="0 0 28 29" fill="none" xmlns="http://www.w3.org/2000/svg">
<path d="M9.11563 16.1301C10.181 16.1301 10.7392 16.2379 11.3205 16.5488C11.8615 16.8381 12.292 17.2686 12.5813 17.8095C12.8922 18.3909 13 18.9491 13 20.0144V22.2457C13 23.3111 12.8922 23.8692 12.5813 24.4506C12.292 24.9916 11.8615 25.4221 11.3205 25.7114C10.7392 26.0223 10.181 26.1301 9.11563 26.1301H6.88437C5.81899 26.1301 5.26083 26.0223 4.67945 25.7114C4.13851 25.4221 3.70801 24.9916 3.41871 24.4506C3.10779 23.8692 3 23.3111 3 22.2457V20.0144C3 18.9491 3.10779 18.3909 3.41871 17.8095C3.70801 17.2686 4.13851 16.8381 4.67945 16.5488C5.26083 16.2379 5.81899 16.1301 6.88437 16.1301H9.11563ZM21.1156 16.1301C22.181 16.1301 22.7392 16.2379 23.3206 16.5488C23.8615 16.8381 24.292 17.2686 24.5813 17.8095C24.8922 18.3909 25 18.9491 25 20.0144V22.2457C25 23.3111 24.8922 23.8692 24.5813 24.4506C24.292 24.9916 23.8615 25.4221 23.3206 25.7114C22.7392 26.0223 22.181 26.1301 21.1156 26.1301H18.8844C17.819 26.1301 17.2608 26.0223 16.6794 25.7114C16.1385 25.4221 15.708 24.9916 15.4187 24.4506C15.1078 23.8692 15 23.3111 15 22.2457V20.0144C15 18.9491 15.1078 18.3909 15.4187 17.8095C15.708 17.2686 16.1385 16.8381 16.6794 16.5488C17.2608 16.2379 17.819 16.1301 18.8844 16.1301H21.1156ZM9.11563 18.1301H6.88437C6.12092 18.1301 5.87468 18.1776 5.62265 18.3124C5.43025 18.4153 5.28523 18.5603 5.18234 18.7527C5.04755 19.0048 5 19.251 5 20.0144V22.2457C5 23.0092 5.04755 23.2554 5.18234 23.5074C5.28523 23.6998 5.43025 23.8448 5.62265 23.9477C5.87468 24.0825 6.12092 24.1301 6.88437 24.1301H9.11563C9.87908 24.1301 10.1253 24.0825 10.3774 23.9477C10.5698 23.8448 10.7148 23.6998 10.8177 23.5074C10.9524 23.2554 11 23.0092 11 22.2457V20.0144C11 19.251 10.9524 19.0048 10.8177 18.7527C10.7148 18.5603 10.5698 18.4153 10.3774 18.3124C10.1253 18.1776 9.87908 18.1301 9.11563 18.1301ZM21.1156 18.1301H18.8844C18.1209 18.1301 17.8747 18.1776 17.6226 18.3124C17.4303 18.4153 17.2852 18.5603 17.1823 18.7527C17.0476 19.0048 17 19.251 17 20.0144V22.2457C17 23.0092 17.0476 23.2554 17.1823 23.5074C17.2852 23.6998 17.4303 23.8448 17.6226 23.9477C17.8747 24.0825 18.1209 24.1301 18.8844 24.1301H21.1156C21.8791 24.1301 22.1253 24.0825 22.3774 23.9477C22.5697 23.8448 22.7148 23.6998 22.8177 23.5074C22.9524 23.2554 23 23.0092 23 22.2457V20.0144C23 19.251 22.9524 19.0048 22.8177 18.7527C22.7148 18.5603 22.5697 18.4153 22.3774 18.3124C22.1253 18.1776 21.8791 18.1301 21.1156 18.1301ZM20.8915 3.54263C21.5224 3.73387 21.9933 4.05233 22.7467 4.80567L24.3244 6.38341C25.0777 7.13675 25.3962 7.60764 25.5874 8.2386C25.7654 8.82566 25.7654 9.43449 25.5874 10.0216C25.3962 10.6525 25.0777 11.1234 24.3244 11.8767L22.7467 13.4545C21.9933 14.2078 21.5224 14.5263 20.8915 14.7175C20.3044 14.8955 19.6956 14.8955 19.1085 14.7175C18.4776 14.5263 18.0067 14.2078 17.2533 13.4545L15.6756 11.8767C14.9223 11.1234 14.6038 10.6525 14.4126 10.0216C14.2346 9.43449 14.2346 8.82566 14.4126 8.2386C14.6038 7.60764 14.9223 7.13675 15.6756 6.38341L17.2533 4.80567C18.0067 4.05233 18.4776 3.73387 19.1085 3.54263C19.6956 3.3647 20.3044 3.3647 20.8915 3.54263ZM9.11563 4.13008C10.181 4.13008 10.7392 4.23786 11.3205 4.54879C11.8615 4.83808 12.292 5.26859 12.5813 5.80953C12.8922 6.39091 13 6.94906 13 8.01445V10.2457C13 11.3111 12.8922 11.8692 12.5813 12.4506C12.292 12.9916 11.8615 13.4221 11.3205 13.7114C10.7392 14.0223 10.181 14.1301 9.11563 14.1301H6.88437C5.81899 14.1301 5.26083 14.0223 4.67945 13.7114C4.13851 13.4221 3.70801 12.9916 3.41871 12.4506C3.10779 11.8692 3 11.3111 3 10.2457V8.01445C3 6.94906 3.10779 6.39091 3.41871 5.80953C3.70801 5.26859 4.13851 4.83808 4.67945 4.54879C5.26083 4.23786 5.81899 4.13008 6.88437 4.13008H9.11563ZM19.6887 5.45665C19.4151 5.53955 19.2074 5.68004 18.6675 6.21989L17.0898 7.79762C16.55 8.33747 16.4095 8.54521 16.3266 8.81873C16.2633 9.02753 16.2633 9.23262 16.3266 9.44142C16.4095 9.71494 16.55 9.92268 17.0898 10.4625L18.6675 12.0403C19.2074 12.5801 19.4151 12.7206 19.6887 12.8035C19.8975 12.8668 20.1025 12.8668 20.3113 12.8035C20.5849 12.7206 20.7926 12.5801 21.3325 12.0403L22.9102 10.4625C23.45 9.92268 23.5905 9.71494 23.6734 9.44142C23.7367 9.23262 23.7367 9.02753 23.6734 8.81873C23.5905 8.54521 23.45 8.33747 22.9102 7.79762L21.3325 6.21989C20.7926 5.68004 20.5849 5.53955 20.3113 5.45665C20.1025 5.39336 19.8975 5.39336 19.6887 5.45665ZM9.11563 6.13008H6.88437C6.12092 6.13008 5.87468 6.17763 5.62265 6.31241C5.43025 6.41531 5.28523 6.56033 5.18234 6.75272C5.04755 7.00475 5 7.25099 5 8.01445V10.2457C5 11.0092 5.04755 11.2554 5.18234 11.5074C5.28523 11.6998 5.43025 11.8448 5.62265 11.9477C5.87468 12.0825 6.12092 12.1301 6.88437 12.1301H9.11563C9.87908 12.1301 10.1253 12.0825 10.3774 11.9477C10.5698 11.8448 10.7148 11.6998 10.8177 11.5074C10.9524 11.2554 11 11.0092 11 10.2457V8.01445C11 7.25099 10.9524 7.00475 10.8177 6.75272C10.7148 6.56033 10.5698 6.41531 10.3774 6.31241C10.1253 6.17763 9.87908 6.13008 9.11563 6.13008Z" fill="#1C1C1E"/>
</svg>
