<svg width="29" height="28" viewBox="0 0 29 28" fill="none" xmlns="http://www.w3.org/2000/svg">
<path fill-rule="evenodd" clip-rule="evenodd" d="M13.2089 4C8.2383 4 4.20886 8.02944 4.20886 13C4.20886 17.9706 8.2383 22 13.2089 22C15.3339 22 17.2869 21.2635 18.8265 20.0319L23.5018 24.7071C23.8923 25.0976 24.5254 25.0976 24.916 24.7071C25.3065 24.3166 25.3065 23.6834 24.916 23.2929L20.2408 18.6177C21.4724 17.078 22.2089 15.125 22.2089 13C22.2089 8.02944 18.1794 4 13.2089 4ZM13.2089 6C9.34287 6 6.20886 9.13401 6.20886 13C6.20886 16.866 9.34287 20 13.2089 20C17.0749 20 20.2089 16.866 20.2089 13C20.2089 9.13401 17.0749 6 13.2089 6Z" fill="#999999"/>
</svg>
