<svg width="26" height="18" viewBox="0 0 26 18" fill="none" xmlns="http://www.w3.org/2000/svg">
<path d="M7.5 10C11.4973 10 15 11.5424 15 14.9286C15 16.7035 14.3109 17.5 12.8529 17.5H2.14706C0.689073 17.5 0 16.7035 0 14.9286C0 11.5424 3.50271 10 7.5 10ZM18 10C21.9973 10 25.5 11.5424 25.5 14.9286C25.5 16.7035 24.8109 17.5 23.3529 17.5H17.5C16.9477 17.5 16.5 17.0523 16.5 16.5C16.5 15.9477 16.9477 15.5 17.5 15.5L23.4128 15.5003C23.4298 15.5005 23.4439 15.5009 23.4554 15.5017L23.468 15.503L23.4704 15.4882C23.4809 15.407 23.4945 15.2672 23.4987 15.0606L23.5 14.9286C23.5 13.0954 21.0125 12 18 12C17.5723 12 17.1018 12.03 16.6302 12.0909C16.0825 12.1615 15.5812 11.7748 15.5105 11.227C15.4398 10.6793 15.8266 10.178 16.3743 10.1073C16.931 10.0355 17.487 10 18 10ZM7.5 12C4.48749 12 2 13.0954 2 14.9286C2 15.2089 2.01695 15.3908 2.02958 15.4882L2.031 15.503L2.04456 15.5017L2.06385 15.5008L12.9288 15.5005C12.9389 15.5008 12.9477 15.5012 12.9554 15.5017L12.968 15.503L12.9704 15.4882C12.983 15.3908 13 15.2089 13 14.9286C13 13.0954 10.5125 12 7.5 12ZM18 0C20.3479 0 22.25 1.90209 22.25 4.25C22.25 6.59791 20.3479 8.5 18 8.5C15.6521 8.5 13.75 6.59791 13.75 4.25C13.75 1.90209 15.6521 0 18 0ZM7.5 0C9.84791 0 11.75 1.90209 11.75 4.25C11.75 6.59791 9.84791 8.5 7.5 8.5C5.15209 8.5 3.25 6.59791 3.25 4.25C3.25 1.90209 5.15209 0 7.5 0ZM18 2C16.7567 2 15.75 3.00666 15.75 4.25C15.75 5.49334 16.7567 6.5 18 6.5C19.2433 6.5 20.25 5.49334 20.25 4.25C20.25 3.00666 19.2433 2 18 2ZM7.5 2C6.25666 2 5.25 3.00666 5.25 4.25C5.25 5.49334 6.25666 6.5 7.5 6.5C8.74334 6.5 9.75 5.49334 9.75 4.25C9.75 3.00666 8.74334 2 7.5 2Z" fill="#1C1C1E"/>
</svg>
