<svg width="309" height="57" viewBox="0 0 309 57" fill="none" xmlns="http://www.w3.org/2000/svg">
<g clip-path="url(#clip0_1944_16697)">
<path d="M20.8549 44.9456H5.822L5.12684 45.8927L0.434478 52.2644L0 52.8671V57H51.7029V44.9456H20.8549ZM11.9916 36.5076H27.1114L45.7071 11.2795L51.2684 3.78852L53.8753 0.172208H0V12.2266H29.8921L11.9916 36.5076Z" fill="url(#paint0_linear_1944_16697)"/>
<path d="M101.208 0.258309V20.7508H74.7913V0.258309H62.6259V57H74.7913V32.8912H101.208V57H113.373V0.258309H101.208Z" fill="url(#paint1_linear_1944_16697)"/>
<path d="M124.022 53.642L122.197 57H137.491L138.099 55.8807L150.525 33.5801L142.878 19.9758L124.022 53.642ZM186.76 53.642L162.43 10.1601L157.39 1.20544L156.868 0H153.914L153.306 1.20544L148.352 10.1601L147.744 11.2795L155.391 24.9698L155.565 25.3142L161.213 35.3882L172.683 55.8807L173.292 57H188.585L186.76 53.642Z" fill="url(#paint2_linear_1944_16697)"/>
<path d="M224.737 22.5589H208.227C205.359 22.5589 203.013 20.2341 203.013 17.3927C203.013 14.5514 205.359 12.2266 208.227 12.2266H227.257C229.169 12.8293 230.472 14.5514 230.472 16.6178H242.377C242.377 15.068 242.203 13.6042 241.769 12.2266C239.857 5.25227 233.427 0.172208 225.78 0.172208H208.227C201.97 0.172208 196.148 3.44411 193.107 8.86858C191.63 11.4517 190.848 14.3792 190.848 17.3927C190.848 20.4063 191.63 23.3338 193.107 25.9169C193.802 27.1224 194.584 28.1556 195.453 29.1027C198.755 32.5468 203.361 34.6133 208.227 34.6133H224.737C227.605 34.6133 229.864 36.9381 229.864 39.7795C229.864 42.6208 227.605 44.9456 224.737 44.9456H205.881C204.056 44.3429 202.753 42.6208 202.753 40.5544H190.848C190.848 42.1042 191.022 43.568 191.369 44.9456C193.368 51.9199 199.798 57 207.445 57H224.737C230.907 57 236.729 53.7281 239.77 48.3897C241.334 45.7205 242.116 42.7931 242.116 39.7795C242.116 36.7659 241.334 33.8384 239.77 31.2553C236.729 25.9169 230.907 22.5589 224.737 22.5589Z" fill="url(#paint3_linear_1944_16697)"/>
<path d="M244.437 53.642L242.612 57H257.905L258.514 55.8807L270.94 33.5801L263.293 19.9758L244.437 53.642ZM307.175 53.642L282.844 10.1601L277.805 1.20544L277.283 0H274.329L273.72 1.20544L268.767 10.1601L268.159 11.2795L275.806 24.9698L275.98 25.3142L281.628 35.3882L293.098 55.8807L293.706 57H309L307.175 53.642Z" fill="url(#paint4_linear_1944_16697)"/>
</g>
<defs>
<linearGradient id="paint0_linear_1944_16697" x1="0" y1="0" x2="183.444" y2="182.747" gradientUnits="userSpaceOnUse">
<stop stop-color="#1DD6B4"/>
<stop offset="1" stop-color="#188ED0"/>
</linearGradient>
<linearGradient id="paint1_linear_1944_16697" x1="0" y1="0" x2="183.444" y2="182.747" gradientUnits="userSpaceOnUse">
<stop stop-color="#1DD6B4"/>
<stop offset="1" stop-color="#188ED0"/>
</linearGradient>
<linearGradient id="paint2_linear_1944_16697" x1="0" y1="0" x2="183.444" y2="182.747" gradientUnits="userSpaceOnUse">
<stop stop-color="#1DD6B4"/>
<stop offset="1" stop-color="#188ED0"/>
</linearGradient>
<linearGradient id="paint3_linear_1944_16697" x1="0" y1="0" x2="183.444" y2="182.747" gradientUnits="userSpaceOnUse">
<stop stop-color="#1DD6B4"/>
<stop offset="1" stop-color="#188ED0"/>
</linearGradient>
<linearGradient id="paint4_linear_1944_16697" x1="0" y1="0" x2="183.444" y2="182.747" gradientUnits="userSpaceOnUse">
<stop stop-color="#1DD6B4"/>
<stop offset="1" stop-color="#188ED0"/>
</linearGradient>
<clipPath id="clip0_1944_16697">
<rect width="309" height="57" fill="white"/>
</clipPath>
</defs>
</svg>
