<svg width="24" height="24" viewBox="0 0 24 24" fill="none" xmlns="http://www.w3.org/2000/svg">
<path d="M6.21285 3.79725L8.18957 5.77476C8.1899 5.77462 8.19023 5.77448 8.19057 5.77434L9.88539 7.46809C9.88505 7.46824 9.88472 7.4684 9.88439 7.46856L11.917 9.50239H11.919L14.4997 12.0813C14.4996 12.0826 14.4996 12.0839 14.4995 12.0852L16.531 14.1173C16.5315 14.1163 16.532 14.1152 16.5324 14.1142L18.8161 16.3989C18.8155 16.3995 18.8148 16.4 18.8141 16.4006L20.1996 17.7872C20.5901 18.1778 20.5901 18.811 20.1995 19.2015C19.8391 19.562 19.2719 19.5897 18.8797 19.2847L18.7854 19.2015L17.1465 17.5628C15.6879 18.409 13.9495 19.0002 12 19.0002C6 19.0002 2 13.4002 2 12.0002C2 11.1098 3.61823 8.52015 6.34006 6.75312L4.79872 5.21155C4.40823 4.82097 4.40826 4.18779 4.7988 3.79725C5.18928 3.40677 5.82237 3.40677 6.21285 3.79725ZM7 12.0002C7 14.7617 9.23858 17.0002 12 17.0002C13.2753 17.0002 14.4391 16.5228 15.3224 15.7368L13.5482 13.964C13.1226 14.2998 12.5852 14.5002 12.001 14.5002C10.6202 14.5002 9.50095 13.3809 9.50095 12.0002C9.50095 11.4155 9.70167 10.8777 10.038 10.4519L8.26339 8.67784C7.47747 9.56112 7 10.7249 7 12.0002ZM12 5.00023C18 5.00023 22 10.6002 22 12.0002C22 12.5519 21.3789 13.7557 20.2591 15.012L16.9937 11.7471C16.866 9.18708 14.813 7.13409 12.253 7.00652L10.3825 5.13715C10.9034 5.04848 11.4431 5.00023 12 5.00023Z" fill="#676767"/>
</svg>
