<svg width="28" height="28" viewBox="0 0 28 28" fill="none" xmlns="http://www.w3.org/2000/svg">
<path d="M13.5 15C17.4973 15 21 16.5424 21 19.9286C21 21.7035 20.3109 22.5 18.8529 22.5H8.14706C6.68907 22.5 6 21.7035 6 19.9286C6 16.5424 9.50271 15 13.5 15ZM13.5 17C10.4875 17 8 18.0954 8 19.9286C8 20.2089 8.01695 20.3908 8.02958 20.4882L8.031 20.503L8.04456 20.5017L8.06385 20.5008L18.9288 20.5005C18.9389 20.5008 18.9477 20.5012 18.9554 20.5017L18.968 20.503L18.9704 20.4882C18.983 20.3908 19 20.2089 19 19.9286C19 18.0954 16.5125 17 13.5 17ZM13.5 5C15.8479 5 17.75 6.90209 17.75 9.25C17.75 11.5979 15.8479 13.5 13.5 13.5C11.1521 13.5 9.25 11.5979 9.25 9.25C9.25 6.90209 11.1521 5 13.5 5ZM13.5 7C12.2567 7 11.25 8.00666 11.25 9.25C11.25 10.4933 12.2567 11.5 13.5 11.5C14.7433 11.5 15.75 10.4933 15.75 9.25C15.75 8.00666 14.7433 7 13.5 7Z" fill="#868686"/>
<path d="M13.5 15C17.4973 15 21 16.5424 21 19.9286C21 21.7035 20.3109 22.5 18.8529 22.5H8.14706C6.68907 22.5 6 21.7035 6 19.9286C6 16.5424 9.50271 15 13.5 15ZM13.5 17C10.4875 17 8 18.0954 8 19.9286C8 20.2089 8.01695 20.3908 8.02958 20.4882L8.031 20.503L8.04456 20.5017L8.06385 20.5008L18.9288 20.5005C18.9389 20.5008 18.9477 20.5012 18.9554 20.5017L18.968 20.503L18.9704 20.4882C18.983 20.3908 19 20.2089 19 19.9286C19 18.0954 16.5125 17 13.5 17ZM13.5 5C15.8479 5 17.75 6.90209 17.75 9.25C17.75 11.5979 15.8479 13.5 13.5 13.5C11.1521 13.5 9.25 11.5979 9.25 9.25C9.25 6.90209 11.1521 5 13.5 5ZM13.5 7C12.2567 7 11.25 8.00666 11.25 9.25C11.25 10.4933 12.2567 11.5 13.5 11.5C14.7433 11.5 15.75 10.4933 15.75 9.25C15.75 8.00666 14.7433 7 13.5 7Z" fill="#868686"/>
</svg>
