<svg width="28" height="28" viewBox="0 0 28 28" fill="none" xmlns="http://www.w3.org/2000/svg">
<path d="M8.5 15C12.4973 15 16 16.5424 16 19.9286C16 21.7035 15.3109 22.5 13.8529 22.5H3.14706C1.68907 22.5 1 21.7035 1 19.9286C1 16.5424 4.50271 15 8.5 15ZM19 15C22.9973 15 26.5 16.5424 26.5 19.9286C26.5 21.7035 25.8109 22.5 24.3529 22.5H18.5C17.9477 22.5 17.5 22.0523 17.5 21.5C17.5 20.9477 17.9477 20.5 18.5 20.5L24.4128 20.5003C24.4298 20.5005 24.4439 20.5009 24.4554 20.5017L24.468 20.503L24.4704 20.4882C24.4809 20.407 24.4945 20.2672 24.4987 20.0606L24.5 19.9286C24.5 18.0954 22.0125 17 19 17C18.5723 17 18.1018 17.03 17.6302 17.0909C17.0825 17.1615 16.5812 16.7748 16.5105 16.227C16.4398 15.6793 16.8266 15.178 17.3743 15.1073C17.931 15.0355 18.487 15 19 15ZM8.5 17C5.48749 17 3 18.0954 3 19.9286C3 20.2089 3.01695 20.3908 3.02958 20.4882L3.031 20.503L3.04456 20.5017L3.06385 20.5008L13.9288 20.5005C13.9389 20.5008 13.9477 20.5012 13.9554 20.5017L13.968 20.503L13.9704 20.4882C13.983 20.3908 14 20.2089 14 19.9286C14 18.0954 11.5125 17 8.5 17ZM19 5C21.3479 5 23.25 6.90209 23.25 9.25C23.25 11.5979 21.3479 13.5 19 13.5C16.6521 13.5 14.75 11.5979 14.75 9.25C14.75 6.90209 16.6521 5 19 5ZM8.5 5C10.8479 5 12.75 6.90209 12.75 9.25C12.75 11.5979 10.8479 13.5 8.5 13.5C6.15209 13.5 4.25 11.5979 4.25 9.25C4.25 6.90209 6.15209 5 8.5 5ZM19 7C17.7567 7 16.75 8.00666 16.75 9.25C16.75 10.4933 17.7567 11.5 19 11.5C20.2433 11.5 21.25 10.4933 21.25 9.25C21.25 8.00666 20.2433 7 19 7ZM8.5 7C7.25666 7 6.25 8.00666 6.25 9.25C6.25 10.4933 7.25666 11.5 8.5 11.5C9.74334 11.5 10.75 10.4933 10.75 9.25C10.75 8.00666 9.74334 7 8.5 7Z" fill="#868686"/>
<path d="M8.5 15C12.4973 15 16 16.5424 16 19.9286C16 21.7035 15.3109 22.5 13.8529 22.5H3.14706C1.68907 22.5 1 21.7035 1 19.9286C1 16.5424 4.50271 15 8.5 15ZM19 15C22.9973 15 26.5 16.5424 26.5 19.9286C26.5 21.7035 25.8109 22.5 24.3529 22.5H18.5C17.9477 22.5 17.5 22.0523 17.5 21.5C17.5 20.9477 17.9477 20.5 18.5 20.5L24.4128 20.5003C24.4298 20.5005 24.4439 20.5009 24.4554 20.5017L24.468 20.503L24.4704 20.4882C24.4809 20.407 24.4945 20.2672 24.4987 20.0606L24.5 19.9286C24.5 18.0954 22.0125 17 19 17C18.5723 17 18.1018 17.03 17.6302 17.0909C17.0825 17.1615 16.5812 16.7748 16.5105 16.227C16.4398 15.6793 16.8266 15.178 17.3743 15.1073C17.931 15.0355 18.487 15 19 15ZM8.5 17C5.48749 17 3 18.0954 3 19.9286C3 20.2089 3.01695 20.3908 3.02958 20.4882L3.031 20.503L3.04456 20.5017L3.06385 20.5008L13.9288 20.5005C13.9389 20.5008 13.9477 20.5012 13.9554 20.5017L13.968 20.503L13.9704 20.4882C13.983 20.3908 14 20.2089 14 19.9286C14 18.0954 11.5125 17 8.5 17ZM19 5C21.3479 5 23.25 6.90209 23.25 9.25C23.25 11.5979 21.3479 13.5 19 13.5C16.6521 13.5 14.75 11.5979 14.75 9.25C14.75 6.90209 16.6521 5 19 5ZM8.5 5C10.8479 5 12.75 6.90209 12.75 9.25C12.75 11.5979 10.8479 13.5 8.5 13.5C6.15209 13.5 4.25 11.5979 4.25 9.25C4.25 6.90209 6.15209 5 8.5 5ZM19 7C17.7567 7 16.75 8.00666 16.75 9.25C16.75 10.4933 17.7567 11.5 19 11.5C20.2433 11.5 21.25 10.4933 21.25 9.25C21.25 8.00666 20.2433 7 19 7ZM8.5 7C7.25666 7 6.25 8.00666 6.25 9.25C6.25 10.4933 7.25666 11.5 8.5 11.5C9.74334 11.5 10.75 10.4933 10.75 9.25C10.75 8.00666 9.74334 7 8.5 7Z" fill="white"/>
</svg>
