<svg width="28" height="29" viewBox="0 0 28 29" fill="none" xmlns="http://www.w3.org/2000/svg">
<path d="M23.3534 19.6984L18.692 24.2994C16.8009 26.1659 13.7609 26.1659 11.8698 24.2994L4.95453 17.4738C3.70395 16.2394 3 14.5555 3 12.7983V8.54428C3 5.8625 5.17402 3.68848 7.85581 3.68848H12.2634C13.9908 3.68848 15.6487 4.36887 16.8781 5.58235L23.3534 11.9736C25.4865 14.0791 25.509 17.5152 23.4035 19.6483C23.3786 19.6735 23.3785 19.6735 23.3534 19.6984ZM21.9484 18.275L21.9801 18.2434C23.3096 16.8963 23.2955 14.7266 21.9484 13.397L15.4732 7.00577C14.6181 6.16173 13.4649 5.68848 12.2634 5.68848H7.85581C6.27859 5.68848 5 6.96707 5 8.54428V12.7983C5 14.0205 5.48963 15.1918 6.35948 16.0504L13.2748 22.8759C14.3869 23.9737 16.1749 23.9737 17.287 22.8759L21.9484 18.275ZM10 12.6885C8.89543 12.6885 8 11.793 8 10.6885C8 9.58391 8.89543 8.68848 10 8.68848C11.1046 8.68848 12 9.58391 12 10.6885C12 11.793 11.1046 12.6885 10 12.6885Z" fill="#868686"/>
</svg>
