<svg width="29" height="28" viewBox="0 0 29 28" fill="none" xmlns="http://www.w3.org/2000/svg">
<path fill-rule="evenodd" clip-rule="evenodd" d="M22.0739 3.33528C21.2182 2.89931 20.2056 2.89931 19.3499 3.33528C18.9221 3.55328 18.5501 3.92622 18.1197 4.35769L4.96885 17.5087C4.61474 17.8626 4.36034 18.1169 4.15134 18.4046C3.73393 18.9791 3.45841 19.6443 3.34732 20.3457C3.2917 20.6969 3.29178 21.0566 3.2919 21.5572L3.29192 22.5999L3.29172 22.6809C3.29069 22.9626 3.28943 23.309 3.3898 23.6179C3.58764 24.2268 4.06501 24.7042 4.67388 24.902C4.98281 25.0024 5.32917 25.0011 5.61094 25.0001L5.69192 24.9999L6.7346 24.9999C7.23525 25 7.59493 25.0001 7.94613 24.9445C8.64753 24.8334 9.31268 24.5579 9.8872 24.1405C10.1749 23.9315 10.4291 23.6771 10.7831 23.323L23.9341 10.1721C24.3656 9.74169 24.7385 9.36969 24.9565 8.94185C25.3925 8.0862 25.3925 7.07356 24.9565 6.21791C24.7385 5.79008 24.3656 5.41809 23.9341 4.98772L23.3041 4.3577C22.8737 3.92622 22.5017 3.55328 22.0739 3.33528ZM20.2579 5.11729C20.5431 4.97197 20.8807 4.97197 21.1659 5.11729C21.2715 5.17107 21.4032 5.28539 21.9847 5.86688L22.4249 6.30709C23.0064 6.88857 23.1207 7.02034 23.1745 7.12589C23.3198 7.4111 23.3198 7.74865 23.1745 8.03387C23.1207 8.13942 23.0064 8.27118 22.4249 8.85267L21.5669 9.71069L18.5811 6.7249L19.4391 5.86688C20.0206 5.28539 20.1524 5.17107 20.2579 5.11729ZM17.1669 8.13911L6.4342 18.8718C6.00874 19.2973 5.87426 19.4358 5.76937 19.5802C5.53748 19.8993 5.38441 20.2689 5.3227 20.6585C5.29478 20.8348 5.29192 21.0278 5.29192 21.6295V22.5999C5.29192 22.7969 5.29226 22.9047 5.29654 22.9829L5.29723 22.9946L5.30889 22.9953C5.38716 22.9995 5.49489 22.9999 5.69192 22.9999H6.66227C7.26396 22.9999 7.45701 22.997 7.63326 22.9691C8.02292 22.9074 8.39245 22.7543 8.71163 22.5224C8.856 22.4175 8.99453 22.2831 9.41999 21.8576L20.1527 11.1249L17.1669 8.13911Z" fill="#999999"/>
</svg>
