<svg width="23" height="24" viewBox="0 0 23 24" fill="none" xmlns="http://www.w3.org/2000/svg">
<path d="M6.11563 13.1301C7.18101 13.1301 7.73917 13.2379 8.32055 13.5488C8.86149 13.8381 9.29199 14.2686 9.58129 14.8095C9.89222 15.3909 10 15.9491 10 17.0144V19.2457C10 20.3111 9.89222 20.8692 9.58129 21.4506C9.29199 21.9916 8.86149 22.4221 8.32055 22.7114C7.73917 23.0223 7.18101 23.1301 6.11563 23.1301H3.88437C2.81899 23.1301 2.26083 23.0223 1.67945 22.7114C1.13851 22.4221 0.708007 21.9916 0.418711 21.4506C0.107785 20.8692 0 20.3111 0 19.2457V17.0144C0 15.9491 0.107785 15.3909 0.418711 14.8095C0.708007 14.2686 1.13851 13.8381 1.67945 13.5488C2.26083 13.2379 2.81899 13.1301 3.88437 13.1301H6.11563ZM18.1156 13.1301C19.181 13.1301 19.7392 13.2379 20.3206 13.5488C20.8615 13.8381 21.292 14.2686 21.5813 14.8095C21.8922 15.3909 22 15.9491 22 17.0144V19.2457C22 20.3111 21.8922 20.8692 21.5813 21.4506C21.292 21.9916 20.8615 22.4221 20.3206 22.7114C19.7392 23.0223 19.181 23.1301 18.1156 23.1301H15.8844C14.819 23.1301 14.2608 23.0223 13.6794 22.7114C13.1385 22.4221 12.708 21.9916 12.4187 21.4506C12.1078 20.8692 12 20.3111 12 19.2457V17.0144C12 15.9491 12.1078 15.3909 12.4187 14.8095C12.708 14.2686 13.1385 13.8381 13.6794 13.5488C14.2608 13.2379 14.819 13.1301 15.8844 13.1301H18.1156ZM6.11563 15.1301H3.88437C3.12092 15.1301 2.87468 15.1776 2.62265 15.3124C2.43025 15.4153 2.28523 15.5603 2.18234 15.7527C2.04755 16.0048 2 16.251 2 17.0144V19.2457C2 20.0092 2.04755 20.2554 2.18234 20.5074C2.28523 20.6998 2.43025 20.8448 2.62265 20.9477C2.87468 21.0825 3.12092 21.1301 3.88437 21.1301H6.11563C6.87908 21.1301 7.12532 21.0825 7.37735 20.9477C7.56975 20.8448 7.71477 20.6998 7.81766 20.5074C7.95245 20.2554 8 20.0092 8 19.2457V17.0144C8 16.251 7.95245 16.0048 7.81766 15.7527C7.71477 15.5603 7.56975 15.4153 7.37735 15.3124C7.12532 15.1776 6.87908 15.1301 6.11563 15.1301ZM18.1156 15.1301H15.8844C15.1209 15.1301 14.8747 15.1776 14.6226 15.3124C14.4303 15.4153 14.2852 15.5603 14.1823 15.7527C14.0476 16.0048 14 16.251 14 17.0144V19.2457C14 20.0092 14.0476 20.2554 14.1823 20.5074C14.2852 20.6998 14.4303 20.8448 14.6226 20.9477C14.8747 21.0825 15.1209 21.1301 15.8844 21.1301H18.1156C18.8791 21.1301 19.1253 21.0825 19.3774 20.9477C19.5697 20.8448 19.7148 20.6998 19.8177 20.5074C19.9524 20.2554 20 20.0092 20 19.2457V17.0144C20 16.251 19.9524 16.0048 19.8177 15.7527C19.7148 15.5603 19.5697 15.4153 19.3774 15.3124C19.1253 15.1776 18.8791 15.1301 18.1156 15.1301ZM17.8915 0.542632C18.5224 0.733873 18.9933 1.05233 19.7467 1.80567L21.3244 3.38341C22.0777 4.13675 22.3962 4.60764 22.5874 5.2386C22.7654 5.82566 22.7654 6.43449 22.5874 7.02155C22.3962 7.65251 22.0777 8.1234 21.3244 8.87674L19.7467 10.4545C18.9933 11.2078 18.5224 11.5263 17.8915 11.7175C17.3044 11.8955 16.6956 11.8955 16.1085 11.7175C15.4776 11.5263 15.0067 11.2078 14.2533 10.4545L12.6756 8.87674C11.9223 8.1234 11.6038 7.65251 11.4126 7.02155C11.2346 6.43449 11.2346 5.82566 11.4126 5.2386C11.6038 4.60764 11.9223 4.13675 12.6756 3.38341L14.2533 1.80567C15.0067 1.05233 15.4776 0.733873 16.1085 0.542632C16.6956 0.364696 17.3044 0.364696 17.8915 0.542632ZM6.11563 1.13008C7.18101 1.13008 7.73917 1.23786 8.32055 1.54879C8.86149 1.83808 9.29199 2.26859 9.58129 2.80953C9.89222 3.39091 10 3.94906 10 5.01445V7.24571C10 8.31109 9.89222 8.86925 9.58129 9.45063C9.29199 9.99156 8.86149 10.4221 8.32055 10.7114C7.73917 11.0223 7.18101 11.1301 6.11563 11.1301H3.88437C2.81899 11.1301 2.26083 11.0223 1.67945 10.7114C1.13851 10.4221 0.708007 9.99156 0.418711 9.45063C0.107785 8.86925 0 8.31109 0 7.24571V5.01445C0 3.94906 0.107785 3.39091 0.418711 2.80953C0.708007 2.26859 1.13851 1.83808 1.67945 1.54879C2.26083 1.23786 2.81899 1.13008 3.88437 1.13008H6.11563ZM16.6887 2.45665C16.4151 2.53955 16.2074 2.68004 15.6675 3.21989L14.0898 4.79762C13.55 5.33747 13.4095 5.54521 13.3266 5.81873C13.2633 6.02753 13.2633 6.23262 13.3266 6.44142C13.4095 6.71494 13.55 6.92268 14.0898 7.46253L15.6675 9.04027C16.2074 9.58011 16.4151 9.7206 16.6887 9.80351C16.8975 9.86679 17.1025 9.86679 17.3113 9.80351C17.5849 9.7206 17.7926 9.58011 18.3325 9.04027L19.9102 7.46253C20.45 6.92268 20.5905 6.71494 20.6734 6.44142C20.7367 6.23262 20.7367 6.02753 20.6734 5.81873C20.5905 5.54521 20.45 5.33747 19.9102 4.79762L18.3325 3.21989C17.7926 2.68004 17.5849 2.53955 17.3113 2.45665C17.1025 2.39336 16.8975 2.39336 16.6887 2.45665ZM6.11563 3.13008H3.88437C3.12092 3.13008 2.87468 3.17763 2.62265 3.31241C2.43025 3.41531 2.28523 3.56033 2.18234 3.75272C2.04755 4.00475 2 4.25099 2 5.01445V7.24571C2 8.00916 2.04755 8.2554 2.18234 8.50743C2.28523 8.69983 2.43025 8.84484 2.62265 8.94774C2.87468 9.08252 3.12092 9.13008 3.88437 9.13008H6.11563C6.87908 9.13008 7.12532 9.08252 7.37735 8.94774C7.56975 8.84484 7.71477 8.69983 7.81766 8.50743C7.95245 8.2554 8 8.00916 8 7.24571V5.01445C8 4.25099 7.95245 4.00475 7.81766 3.75272C7.71477 3.56033 7.56975 3.41531 7.37735 3.31241C7.12532 3.17763 6.87908 3.13008 6.11563 3.13008Z" fill="white"/>
<path d="M6.11563 13.1301C7.18101 13.1301 7.73917 13.2379 8.32055 13.5488C8.86149 13.8381 9.29199 14.2686 9.58129 14.8095C9.89222 15.3909 10 15.9491 10 17.0144V19.2457C10 20.3111 9.89222 20.8692 9.58129 21.4506C9.29199 21.9916 8.86149 22.4221 8.32055 22.7114C7.73917 23.0223 7.18101 23.1301 6.11563 23.1301H3.88437C2.81899 23.1301 2.26083 23.0223 1.67945 22.7114C1.13851 22.4221 0.708007 21.9916 0.418711 21.4506C0.107785 20.8692 0 20.3111 0 19.2457V17.0144C0 15.9491 0.107785 15.3909 0.418711 14.8095C0.708007 14.2686 1.13851 13.8381 1.67945 13.5488C2.26083 13.2379 2.81899 13.1301 3.88437 13.1301H6.11563ZM18.1156 13.1301C19.181 13.1301 19.7392 13.2379 20.3206 13.5488C20.8615 13.8381 21.292 14.2686 21.5813 14.8095C21.8922 15.3909 22 15.9491 22 17.0144V19.2457C22 20.3111 21.8922 20.8692 21.5813 21.4506C21.292 21.9916 20.8615 22.4221 20.3206 22.7114C19.7392 23.0223 19.181 23.1301 18.1156 23.1301H15.8844C14.819 23.1301 14.2608 23.0223 13.6794 22.7114C13.1385 22.4221 12.708 21.9916 12.4187 21.4506C12.1078 20.8692 12 20.3111 12 19.2457V17.0144C12 15.9491 12.1078 15.3909 12.4187 14.8095C12.708 14.2686 13.1385 13.8381 13.6794 13.5488C14.2608 13.2379 14.819 13.1301 15.8844 13.1301H18.1156ZM6.11563 15.1301H3.88437C3.12092 15.1301 2.87468 15.1776 2.62265 15.3124C2.43025 15.4153 2.28523 15.5603 2.18234 15.7527C2.04755 16.0048 2 16.251 2 17.0144V19.2457C2 20.0092 2.04755 20.2554 2.18234 20.5074C2.28523 20.6998 2.43025 20.8448 2.62265 20.9477C2.87468 21.0825 3.12092 21.1301 3.88437 21.1301H6.11563C6.87908 21.1301 7.12532 21.0825 7.37735 20.9477C7.56975 20.8448 7.71477 20.6998 7.81766 20.5074C7.95245 20.2554 8 20.0092 8 19.2457V17.0144C8 16.251 7.95245 16.0048 7.81766 15.7527C7.71477 15.5603 7.56975 15.4153 7.37735 15.3124C7.12532 15.1776 6.87908 15.1301 6.11563 15.1301ZM18.1156 15.1301H15.8844C15.1209 15.1301 14.8747 15.1776 14.6226 15.3124C14.4303 15.4153 14.2852 15.5603 14.1823 15.7527C14.0476 16.0048 14 16.251 14 17.0144V19.2457C14 20.0092 14.0476 20.2554 14.1823 20.5074C14.2852 20.6998 14.4303 20.8448 14.6226 20.9477C14.8747 21.0825 15.1209 21.1301 15.8844 21.1301H18.1156C18.8791 21.1301 19.1253 21.0825 19.3774 20.9477C19.5697 20.8448 19.7148 20.6998 19.8177 20.5074C19.9524 20.2554 20 20.0092 20 19.2457V17.0144C20 16.251 19.9524 16.0048 19.8177 15.7527C19.7148 15.5603 19.5697 15.4153 19.3774 15.3124C19.1253 15.1776 18.8791 15.1301 18.1156 15.1301ZM17.8915 0.542632C18.5224 0.733873 18.9933 1.05233 19.7467 1.80567L21.3244 3.38341C22.0777 4.13675 22.3962 4.60764 22.5874 5.2386C22.7654 5.82566 22.7654 6.43449 22.5874 7.02155C22.3962 7.65251 22.0777 8.1234 21.3244 8.87674L19.7467 10.4545C18.9933 11.2078 18.5224 11.5263 17.8915 11.7175C17.3044 11.8955 16.6956 11.8955 16.1085 11.7175C15.4776 11.5263 15.0067 11.2078 14.2533 10.4545L12.6756 8.87674C11.9223 8.1234 11.6038 7.65251 11.4126 7.02155C11.2346 6.43449 11.2346 5.82566 11.4126 5.2386C11.6038 4.60764 11.9223 4.13675 12.6756 3.38341L14.2533 1.80567C15.0067 1.05233 15.4776 0.733873 16.1085 0.542632C16.6956 0.364696 17.3044 0.364696 17.8915 0.542632ZM6.11563 1.13008C7.18101 1.13008 7.73917 1.23786 8.32055 1.54879C8.86149 1.83808 9.29199 2.26859 9.58129 2.80953C9.89222 3.39091 10 3.94906 10 5.01445V7.24571C10 8.31109 9.89222 8.86925 9.58129 9.45063C9.29199 9.99156 8.86149 10.4221 8.32055 10.7114C7.73917 11.0223 7.18101 11.1301 6.11563 11.1301H3.88437C2.81899 11.1301 2.26083 11.0223 1.67945 10.7114C1.13851 10.4221 0.708007 9.99156 0.418711 9.45063C0.107785 8.86925 0 8.31109 0 7.24571V5.01445C0 3.94906 0.107785 3.39091 0.418711 2.80953C0.708007 2.26859 1.13851 1.83808 1.67945 1.54879C2.26083 1.23786 2.81899 1.13008 3.88437 1.13008H6.11563ZM16.6887 2.45665C16.4151 2.53955 16.2074 2.68004 15.6675 3.21989L14.0898 4.79762C13.55 5.33747 13.4095 5.54521 13.3266 5.81873C13.2633 6.02753 13.2633 6.23262 13.3266 6.44142C13.4095 6.71494 13.55 6.92268 14.0898 7.46253L15.6675 9.04027C16.2074 9.58011 16.4151 9.7206 16.6887 9.80351C16.8975 9.86679 17.1025 9.86679 17.3113 9.80351C17.5849 9.7206 17.7926 9.58011 18.3325 9.04027L19.9102 7.46253C20.45 6.92268 20.5905 6.71494 20.6734 6.44142C20.7367 6.23262 20.7367 6.02753 20.6734 5.81873C20.5905 5.54521 20.45 5.33747 19.9102 4.79762L18.3325 3.21989C17.7926 2.68004 17.5849 2.53955 17.3113 2.45665C17.1025 2.39336 16.8975 2.39336 16.6887 2.45665ZM6.11563 3.13008H3.88437C3.12092 3.13008 2.87468 3.17763 2.62265 3.31241C2.43025 3.41531 2.28523 3.56033 2.18234 3.75272C2.04755 4.00475 2 4.25099 2 5.01445V7.24571C2 8.00916 2.04755 8.2554 2.18234 8.50743C2.28523 8.69983 2.43025 8.84484 2.62265 8.94774C2.87468 9.08252 3.12092 9.13008 3.88437 9.13008H6.11563C6.87908 9.13008 7.12532 9.08252 7.37735 8.94774C7.56975 8.84484 7.71477 8.69983 7.81766 8.50743C7.95245 8.2554 8 8.00916 8 7.24571V5.01445C8 4.25099 7.95245 4.00475 7.81766 3.75272C7.71477 3.56033 7.56975 3.41531 7.37735 3.31241C7.12532 3.17763 6.87908 3.13008 6.11563 3.13008Z" fill="#868686"/>
</svg>
